<svg width="58" height="27" viewBox="0 0 58 27" fill="none" xmlns="http://www.w3.org/2000/svg">
<path d="M15.3259 26C13.9579 26 12.7699 25.712 11.7619 25.136C10.7779 24.536 10.0099 23.732 9.45792 22.724C8.92992 21.692 8.66592 20.54 8.66592 19.268V3.86H0.997922V0.799998H19.7899V3.86H12.1219V19.7C12.1219 20.636 12.4099 21.416 12.9859 22.04C13.5859 22.64 14.3779 22.94 15.3619 22.94H17.0179V26H15.3259ZM40.2509 26.432C38.9549 26.432 37.7909 26.132 36.7589 25.532C35.7269 24.932 34.9109 24.116 34.3109 23.084C33.7349 22.028 33.4469 20.804 33.4469 19.412V6.884C33.4469 5.9 33.0989 5.072 32.4029 4.4C31.7309 3.728 30.9269 3.392 29.9909 3.392C29.0549 3.392 28.2509 3.728 27.5789 4.4C26.9309 5.072 26.6069 5.9 26.6069 6.884V26H23.1509V7.352C23.1509 6.032 23.4389 4.844 24.0149 3.788C24.5909 2.732 25.3949 1.904 26.4269 1.304C27.4589 0.679999 28.6469 0.368 29.9909 0.368C31.3589 0.368 32.5589 0.679999 33.5909 1.304C34.6229 1.904 35.4269 2.732 36.0029 3.788C36.5789 4.844 36.8669 6.032 36.8669 7.352V19.88C36.8669 20.888 37.2029 21.728 37.8749 22.4C38.5469 23.048 39.3389 23.372 40.2509 23.372C41.1629 23.372 41.9429 23.048 42.5909 22.4C43.2389 21.728 43.5629 20.888 43.5629 19.88V7.352C43.5629 6.032 43.8509 4.844 44.4269 3.788C45.0269 2.732 45.8429 1.904 46.8749 1.304C47.9069 0.679999 49.1069 0.368 50.4749 0.368C51.8189 0.368 53.0069 0.679999 54.0389 1.304C55.0709 1.904 55.8749 2.732 56.4509 3.788C57.0269 4.844 57.3149 6.032 57.3149 7.352V26H53.8589V6.884C53.8589 5.9 53.5229 5.072 52.8509 4.4C52.2029 3.728 51.4109 3.392 50.4749 3.392C49.5149 3.392 48.6989 3.728 48.0269 4.4C47.3549 5.072 47.0189 5.9 47.0189 6.884V19.412C47.0189 20.804 46.7189 22.028 46.1189 23.084C45.5429 24.116 44.7389 24.932 43.7069 25.532C42.6989 26.132 41.5469 26.432 40.2509 26.432Z" />
</svg>
